<?xml version="1.0" encoding="UTF-8"?>
<svg xmlns="http://www.w3.org/2000/svg" width="100%" height="100%" viewBox="-24 -24 48 48" xmlns:xlink="http://www.w3.org/1999/xlink">
    <style>
        .back {
            fill: #2196f3;
        }
        .shadow {
            fill: #0069c0;
        }
        .text {
            fill: #202020;
        }
        .bubble {
            fill: #ffffff;
        }
    </style>
    <defs>
        <g id="back">
            <circle cx="0" cy="0" r="22"/>
            <!-- <rect x="-19" y="-19" width="38" height="38" rx="2" ry="2"/> -->
            <!-- <rect x="-24" y="-24" width="48" height="48"/> -->
        </g>
        <mask id="back-mask">
            <g fill="white">
                <use x="0" y="0" xlink:href="#back"/>
            </g>
        </mask>     
        <pattern id="smallGrid" width="1" height="1" patternUnits="userSpaceOnUse">
            <path d="M 10 0 L 0 0 0 10" fill="none" stroke="gray" stroke-width="0.1"/>
        </pattern>
        <pattern id="grid" width="4" height="4" patternUnits="userSpaceOnUse">
            <rect width="100" height="100" fill="url(#smallGrid)"/>
            <path d="M 100 0 L 0 0 0 100" fill="none" stroke="gray" stroke-width="0.5"/>
        </pattern>   
    </defs>
    <g class="back">
        <use x="0" y="0" xlink:href="#back"/>
    </g>

    <g mask="url(#back-mask)">
        <g transform="scale(1, .8)">
            <g transform="rotate(45)">
                <g class="shadow" >
                    <rect x="0" y="-16" height="35" width="50" />
                </g>
                <g class="bubble">
                    <circle cx="0" cy="0" r="16"  />
                    <path d="
                        M  0 19
                        L  10  5
                        L -10  5
                        Z"/>
                </g>
            </g>
        </g>

        <!-- 
        <text x="0" y="1.54" 
            text-anchor="middle"
            alignment-baseline="middle"
            font-family="Roboto"
            font-weight="bold"
            font-size="16.45"
            fill="rgba(0,0,0,0.8)">CB</text>
        -->
        <g transform="translate(0, 4.35)" class="text">
            <path d="m -0.61848147,-2.4359524 0.0160645,0.048193 q 0.0321289,1.88757332 -1.15664068,2.99602064 -1.1807374,1.10041506 -3.2851808,1.10041506 -2.1124757,0 -3.4297609,-1.35744632 Q -9.7912846,-1.006216 -9.7912846,-3.1427883 v -2.3213136 q 0,-2.1285402 1.2851563,-3.4940187 1.2851563,-1.3654784 3.3414064,-1.3654784 2.1687013,0 3.3895997,1.1164793 1.22089854,1.1084473 1.18876963,3.0281496 l -0.0160645,0.048193 H -2.8835695 q 0,-1.1566406 -0.5542236,-1.7670899 -0.5542237,-0.6184815 -1.7269288,-0.6184815 -1.0522217,0 -1.6707032,0.8594483 -0.6184815,0.8514161 -0.6184815,2.1767335 v 2.3373781 q 0,1.3413819 0.6506104,2.20083014 0.6506104,0.85141605 1.7590577,0.85141605 1.1004151,0 1.6225098,-0.58635256 0.530127,-0.59438483 0.530127,-1.75905773 z" />
            <path d="m 1.0602542,1.54 v -11.694922 h 3.9518557 q 2.0642823,0 3.220923,0.8032222 1.1566407,0.8032227 1.1566407,2.4016359 0,0.8112549 -0.4337403,1.4538331 -0.425708,0.6345459 -1.2449952,0.955835 1.0522218,0.2249023 1.5743165,0.9638672 0.530127,0.7389649 0.530127,1.7108643 0,1.67873547 -1.1084473,2.54621598 Q 7.598487,1.54 5.5663335,1.54 Z m 2.3454103,-5.1727542 v 3.37353533 h 2.160669 q 0.9317384,0 1.4217042,-0.40161135 0.4899659,-0.40964358 0.4899659,-1.20483408 0,-0.8594482 -0.4176758,-1.3092529 -0.4176758,-0.457837 -1.3172853,-0.457837 z m 0,-1.6225098 h 1.6867677 q 0.9397705,0 1.4458008,-0.3855469 0.5060303,-0.3855469 0.5060303,-1.1245118 0,-0.8112549 -0.5140625,-1.1968018 Q 6.0241705,-8.3476714 5.0121099,-8.3476714 H 3.4056645 Z" />
        </g>
    </g>

    <!-- <rect x="-24" y="-24" width="100%" height="100%" fill="url(#grid)" /> -->
</svg>
